<?xml version="1.0" encoding="UTF-8" standalone="no"?>
<svg
   xmlns:dc="http://purl.org/dc/elements/1.1/"
   xmlns:cc="http://creativecommons.org/ns#"
   xmlns:rdf="http://www.w3.org/1999/02/22-rdf-syntax-ns#"
   xmlns:svg="http://www.w3.org/2000/svg"
   xmlns="http://www.w3.org/2000/svg"
   xmlns:sodipodi="http://sodipodi.sourceforge.net/DTD/sodipodi-0.dtd"
   xmlns:inkscape="http://www.inkscape.org/namespaces/inkscape"
   width="1481.458"
   height="1468.6229"
   viewBox="0 0 1481.458 1468.623"
   version="1.1"
   id="svg9"
   sodipodi:docname="cycleGirl.svg"
   inkscape:version="1.0.2-2 (e86c870879, 2021-01-15)">
  <metadata
     id="metadata15">
    <rdf:RDF>
      <cc:Work
         rdf:about="">
        <dc:format>image/svg+xml</dc:format>
        <dc:type
           rdf:resource="http://purl.org/dc/dcmitype/StillImage" />
        <dc:title>pose/sitting/bike</dc:title>
      </cc:Work>
    </rdf:RDF>
  </metadata>
  <defs
     id="defs13" />
  <sodipodi:namedview
     pagecolor="#ffffff"
     bordercolor="#666666"
     borderopacity="1"
     objecttolerance="10"
     gridtolerance="10"
     guidetolerance="10"
     inkscape:pageopacity="0"
     inkscape:pageshadow="2"
     inkscape:window-width="1920"
     inkscape:window-height="1001"
     id="namedview11"
     showgrid="false"
     inkscape:zoom="0.5268063"
     inkscape:cx="784.83649"
     inkscape:cy="737.37489"
     inkscape:window-x="-9"
     inkscape:window-y="-9"
     inkscape:window-maximized="1"
     inkscape:current-layer="g844"
     inkscape:document-rotation="0" />
  <!-- Generator: Sketch 62 (91390) - https://sketch.com -->
  <title
     id="title2">pose/sitting/bike</title>
  <desc
     id="desc4">Created with Sketch.</desc>
  <g
     id="pose/sitting/bike"
     stroke="none"
     stroke-width="1"
     fill="none"
     fill-rule="evenodd"
     transform="matrix(0.44618608,0,0,0.43696316,382.38135,276.15098)">
    <path
       d="m 2382.9268,2109.2057 c -50.218,644.456 -926.816,736.985 -1101.808,116.033 l -0.109,0.04 c -0.615,-2.414 -1.936,-7.249 -2.64,-9.634 l 0.112,-0.025 c -15.529,-60.825 -21.316,-126.662 -16.907,-190.407 h 0.01 c 8.391,-131.536 64.369,-263.017 154.208,-359.101 l 0.01,0.012 c 25.038,-27.15 52.556,-51.604 81.931,-73.247 55.505,167.634 135.998,317.539 238.008,442.219 l -3.948,4.876 c 4.919,2.725 9.804,5.447 14.686,8.186 1.689,2.049 3.527,4.344 5.194,6.457 -6.81,17.411 7.648,34.307 24.743,37.638 -5.206,12.249 7.546,17.092 15.199,19.299 25.218,5.777 54.845,7.034 73.939,-7.113 24.653,-22.588 15.998,-67.16 -10.648,-84.094 0.108,-0.286 0.201,-0.577 0.295,-0.867 -3.57,-0.379 -6.798,-1.702 -9.45,-3.87 -13.329,-5.158 -28.885,-5.105 -41.941,0.668 -88.643,-144.223 -177.542,-300.966 -226.737,-471.836 20.781,-10.394 42.385,-19.596 64.321,-27.304 l -0.014,-0.029 c 0.59,-0.2 2.363,-0.799 2.92,-1.007 v 0.013 c 20.359,-7.014 41.318,-12.888 62.408,-17.436 v -0.018 c 1.859,-0.382 5.738,-1.197 7.611,-1.596 v 0.025 c 37.59,-7.582 76.754,-11.157 115.758,-10.602 l 10e-4,-0.01 c 1.462,0.026 7.013,0.138 8.813,0.174 v 0.035 c 13.251,0.367 26.885,1.346 40.196,2.627 -0.13,0.492 -0.338,1.133 -0.597,1.875 1.088,0.057 2.149,0.221 3.187,0.475 0.153,-0.666 0.31,-1.332 0.459,-1.998 10.505,1.189 21.116,2.624 31.55,4.397 l 10e-4,-0.01 7.471,1.295 v 0.026 c 133.923,23.667 260.11,103.222 342.307,212.217 h -0.01 c 34.69,45.254 62.573,95.677 82.944,149.994 h 0.01 l 3.272,8.887 -0.021,0.01 c 27.37,76.366 38.828,160.212 33.137,242.727 z m -957.565,-846 c -201.345,191.938 -424.688,370.499 -595.15803,592.306 l -31.878,-19.272 3.219,-0.617 c -10.655,-1.059 -20.505,-11.033 -28.395,-17.523 16.994,1.195 22.406,4.354 32.53,-15.068 35.475,-63.829 66.071,-128.95 104.325,-191.952 31.296,-55.542 62.618,-110.56 93.89703,-166.672 16.526,-24.173 44.144,-88.524 -1.373,-120.881 119.253,-54.47 256.649,-119.902 384.012,-199.273 10.303,46.659 26.381,91.791 41.157,136.771 z M 741.14577,925.64073 c -17.067,-15.707 -35.854,-30.869 -44.422,-53.645 26.364,4.342 52.446,6.848 81.56,7.326 1.664,0 3.196,-1.562 3.216,-3.301 0.593,-33.596 0.545,-70.575 -2.493,-106.478 14.314,7.101 25.81,-1.004 38.771,-7.962 13.576,10.153 27.595,7.143 44.187,0.002 0.156,-0.047 67.036,-24.847 67.187,-24.87 14.914,-4.672 21.315,-9.122 25.068,-18.611 1.93,0.514 5.821,1.533 7.75,2.028 16.014,23.779 248.43103,97.609 269.09003,70.228 21.613,9.183 47.456,1.752 70.335,0.112 17.882,1.506 36.064,5.531 53.92,3.265 3.528,18.529 7.096,37.062 10.675,55.578 -47.989,70.003 -55.131,101.71 -41.455,185.81697 2.954,17.402 8.686,23.246 30.087,25.777 -127.168,69.693 -255.048,136.481 -380.62203,211.002 17.765,-42.125 35.42403,-85.057 52.14303,-127.159 5.933,-12.928 13.874,-31.926 14.507,-49.618 4.914,-65.697 -199.92303,-125.94297 -280.16903,-147.68997 -2.269,-9.349 -12.571,-14.861 -19.335,-21.801 z m 653.25803,120.42497 c 0.922,-1.598 4.545,-9.224 5.425,-10.988 2.05,3.88 6.07,11.07 8.638,14.57 -5.01,1.798 -17.272,8.511 -22.13,11.078 z m -713.35103,334.5 c -2.16,8.754 -4.121,17.068 -6.016,25.061 -47.443,24.754 -94.625,47.382 -142.226,71.638 l 1.506,2.781 c -26.937,15.777 -56.245,25.325 -82.704,41.709 -20.683,-89.303 -36.452,-179.766 -48.172,-270.941 10.921,-0.404 21.778,-1.429 32.814,-3.682 11.015,0.274 21.334,-0.944 30.102,-3.842 61.218,45.225 125.999,87.085 192.575,124.513 7.4,4.933 15.11,6.535 23.471,7.299 z m -7.689,677.116 c -7.425,-0.733 -14.152,7.057 -21.304,9.617 -22.195,11.492 -43.875,23.189 -65.216,35.1 -7.391,-43.008 -25.878,-82.806 -27.141,-127.275 l -0.712,1.344 c -2.685,-5.22 -8.146,-14.528 -11.288,-19.539 5.257,1.227 15.196,3.51 20.379,4.688 l -0.582,0.807 c 6.717,-1.158 15.88,3.107 22.233,3.931 23.042,4.361 46.579,8.836 69.947,12.235 -6.01,9.381 -5.686,9.886 5.442,9.907 -6.365,12.776 -7.842,28.244 -7.233,41.703 0.181,2.444 1.169,1.956 2.413,2.914 2.465,7.022 7.297,11.861 15.51,14.936 z m -202.994,-488.835 -2.085,-6.523 2.589,-0.876 c -0.411,-1.019 -2.031,-1.602 -3.298,-1.342 l -0.236,-0.743 c 63.859,-27.29 126.359,-57.974 189.346,-87.045 -36.987,106.878 -110.491,199.274 -128.948,312.627 l -9.734,0.636 c -21.681,-73.287 -39.413,-148.351 -56.561,-220.943 l 3.05,-1.032 c -0.421,3.195 2.748,5.989 5.877,5.241 z m 45.968,529.299 c -6.933,2.359 -15.318,3.202 -23.039,2.408 -33.578,-6.477 -67.787,-11.767 -101.158,-17.001 18.98,-182.26 -41.733,-367.952 -165.506,-501.665 46.027,-41.913 94.858,-86.051 147.028,-132.934 48.75,236.811 104.166,470.581 147.014,647.731 z m -206.58,-71.802 c -0.303,14.524 -1.215,29.214 -2.539,43.675 -138.294,-21.622 -286.915003,-44.107 -436.253,-62.005 l 6.655,-7.185 c 8.37,-10.299 -5.711,-27.217 -14.041,-31.94 -15.636,-9.324 -33.159,-5.801 -50.46,2.444 l -5.733,-8.034 c 31.944,-28.95 63.943,-57.653 95.746997,-86.757 36.955,15.767 74.362,29.391 111.642,43.836 l -1.459,8.978 c 8.33,0.039 16.721,-1.054 24.693,-0.242 92.100003,34.386 189.291003,67.475 271.830003,93.48 z m -9.087,91.171 c -5.627,31.496 -13.98,62.569 -24.64,92.573 l -0.077,-0.041 c -116.319,368.557 -620.793,493.89 -882.61,200.843 -294.072,-288.254 -150.584,-860.579 261.407,-947.251 23.583,42.463 43.394,85.282 64.549,128.281 10.173,24.859 28.536,46.939 32.699,74.174 2.747,10.003 5.317,20.003 7.79,30.002 0.404,0.188 0.808,0.374 1.217,0.552 -0.03,-0.131 -0.061,-0.26 -0.091,-0.391 l 9.107,-3.777 c 18.209,31.341 41.49,86.281 62.221,119.701 26.853,40.471 25.554,37.528 45.548,39.843 -23.763,23.613 -47.893,47.607 -71.657,71.188 -21.078,20.502 -40.989,46.566 -72.706,52.408 -10.315,0.952 -19.066,4.258 -25.196,11.221 -1.432,4.328 -3.574,8.391 -6.006,12.27 -10.881,40.974 45.158,72.829 74.401,38.127 176.044997,27.019 348.821,47.407 524.946,75.249 z m -377.134003,-727.735 c 70.4990003,-0.986 155.775,7.601 249.059003,2.384 5.556,-1.488 11.932,-2.59 16.191,-5.687 24.864,12.659 50.131,25.713 75.696,37.531 -1.969,11.096 10.027,17.706 13.845,27.412 -31.193,29.386 -63.293,58.125 -92.895,89.568 -74.73,-67.874 -165.863003,-116.881 -263.214003,-141.36 z m 2532.647033,586.681 c -35.587,-291.536 -292.35,-550.704 -587.549,-565.916 l -1.491,-9.649 c 14.079,-5.483 26.438,-16.78 36.74,-33.584 -93.326,-9.355 -189.659,1.667 -275.497,33.305 -15.934,6.182 -33.228,12.325 -50.9,10.012 -2.563,-5.079 -5.67,-10.379 -9.087,-15.714 -0.144,-0.023 -0.287,-0.058 -0.431,-0.108 -5.219,-1.847 -10.222,-4.386 -12.761,-9.568 -2.346,-4.791 -2.269,-10.557 -3.244,-15.711 -0.177,-0.935 0.046,-1.736 0.489,-2.355 -8.179,-14.09 -15.782,-28.341 -33.331,-29.92 l 5.774,-6.169 c 2.421,-2.811 0.975,-7.794 -3.178,-8.649 -23.459,-84.873 -52.139,-166.186 -74.427,-251.595 l -7.147,2.06 c -0.916,-2.327 -6.57,-16.423 -7.612,-19.031 l 12.646,8.793 -1.508,-5.855 c 110.856,43.102 218.499,62.096 321.898,44.038 l 0.052,-0.303 c 12.216,-3.707 23.684,-8.982 33.174,-15.711 5.994,0.444 7.593,-3.131 10.511,-12.939 6.091,-20.116 12.938,-40.388 19.432,-60.017 37.255,-121.85397 88.565,-238.88697 122.337,-360.10097 0.884,-0.729 3.973,-3.676 3.357,-3.837 -133.029,-77.692 -453.216,-54.102 -626.826,-28.049 3.013,46.893 11.984,92.805 20.652,137.431 -63.048,-44.786 -123.276,-97.487 -198.974,-119.966 l 17.817,-3.634 c 2.915,-0.48 4.768,-6.125 1.711,-7.313 0,0 -3.506,-1.257 -3.506,-1.257 6.522,-50.634 -50.459,-56.586 -82.354,-31.665 -6.978,5.776 -14.761,25.671 -1.84,30.039 l -0.575,9.701 c -10.622,1.6 -24.242,7.598 -35.603,13.418 2.552,-15.469 -3.152,-36.655 -21.182,-22.07 -258.45303,-118.357 -146.33103,-239.927 -167.32103,-431.824 -1.339,-57.616 -8.27,-61.238 -63.022,-87.054 -31.591,-19.302001 -65.554,-32.818001 -98.268,-49.790001 l 2.325,-2.324 c -3.02,-6.038 -9.556,-19.104 -13.156,-26.301 l -1.34,0.396 c -4.982,-12.038 -8.818,-24.2400002 -11.078,-36.9120002 -1.314,-14.7209998 -8.195,-23.6449998 -24.586,-26.4579998 -41.22,-8.684 -82.448,-2.035 -98.967,41.5359998 l -0.206,0.035 c -4.008,11.5120002 -11.742,23.2670002 -21.375,28.8780002 l 5.962,5.333 c -0.248,0.459 -0.497,0.917 -0.75,1.373 l -9.357,-2.793 c 0.023,-0.506 0.079,-1.211 0.122,-1.724 -5.256,2.393 -11.486,4.191 -17.859,4.185 -199.598,-33.9100002 -259.366,122.346001 -229.696,294.674001 -11.757,44.471 -22.144,89.016 -32.868,133.278 -31.291,147.745 -125.248,239.573 -157.249003,382.391 -8.44,34.709 -43.474,98.539 -12.716,120.799 -5.273,40.79097 11.838,84.61397 42.357003,115.28697 -46.109003,1.294 -110.3610027,76.541 -55.980003,113.562 19.786,8.679 43.552003,7.677 65.136003,11.422 l -1.664,5.546 c 0.885,4.922 9.16,4.605 13.151,4.119 -0.01,11.809 -1.51,24.696 3.31,35.155 0.531,5.965 2.977,7.913 4.193,7.504 7.963,0.258 16.042,-0.73 24.088,-0.262 12.179,19.635 30.405,32.034 49.252,22.007 11.467,-5.975 11.27,-21.937 22.122,-30.026 28.406,-17.847 60.68,-14.913 90.704,-14.436 12.441,41.783 18.049,84.191 27.835,126.368 -12.83,16.123 -27.512,32.482 -44.358,49.612 l -2.199,-0.514 -2.229,0.69 c -12.803,-11.461 -27.018,-31.018 -45.187,-23.894 -151.687,-137.405 -395.761,-116.278 -583.302,-114.932 -84.827,1.004 -172.416,1.93 -258.438,5.848 -24.54,0.568 -40.371,2.385 -41.216,20.853 -16.222,0.707 -28.268,4.697 -43.527,5.881 -9.531,0.504 -14.497,1.269 -14.823,3.985 1.844,26.36 2.881,53.939 12.065,78.56 9.614,24.364 38.94,24.344 61.33,15.349 8.4,-3.604 1.158,-14.018 0.912,-20.389 -5.107,-20.869 -8.296,-42.222 -9.258,-64.163 10.585,0.829 19.846,1.325 32.041,1.488 l 0.207,5.655 c 21.447,0.837 112.602,2.445 134.831,-0.66 -9.118,11.033 -12.649,22.36 -3.894,34.785 23.126,25.782 65.764,14.046 96.133,17.932 l 0.47,9.868 c -478.346,89.106 -660.46897,738.614 -313.512,1072.999 339.287,368.919 987.986,149.242 1053.562,-341.725 28.23,4.745 56.6,8.496 84.757,14.481 -16.628,15.147 -40.503,22.812 -56.82,37.309 -28.306,27.585 -36.696,45.703 -23.721,59.929 l 0.241,-0.201 c 10.393,5.789 23.075,5.299 34.668,1.361 7.345,1 14.969,2.155 22.271,2.156 11.874,-0.246 23.097,-3.225 26.234,-12.615 0.346,-3.57 -6.483,-9.648 -9.81,-12.626 18.306,-12.79 36.712,-27.484 57.719,-41.342 5.145,-2.57 7.568,-5.115 9.367,-9.636 90.333,32.344 184.908,-36.804 242.499,-88.138 -0.069,0.294 -0.133,0.6 -0.202,0.896 6.995,-6.89 14.348,-13.596 22.323,-14.782 2.32,-2.348 4.912,-4.564 7.829,-6.621 l 42.574,1.511 c 11.475,0.408 26.765,2.92 37.186,-0.951 24.136,-11.62 13.814,-47.243 1.542,-63.657 19.339,-1.153 38.972,-0.829 58.183,-3.421 49.233,-5.768 35.238,-55.085 -4.234,-66.244 -10.941,-14.113 -59.542,-29.074 -60.875,-46.806 183.27903,-194.863 381.31503,-380.563 564.86103,-564.69 6.038,19.841 7.303,41.018 7.493,61.065 0.03,48.214 12.82,95.952 24.435,142.001 -424.183,268.155 -368.08,969.165 98.462,1159.755 457.096,209.553 953.635,-219.539 882.744,-698.017 z"
       id="ðŸŽ¨-Background"
       fill="#ffffff" />
    <path
       d="m 1864.9285,1401.2288 c 17.478,-6.807 30.202,-20.8 39.54,-36.208 2.09,-3.238 -0.73,-6.672 -4.08,-7.007 -85.44,-8.484 -174.04,-0.423 -255.75,26.13 -22.327,5.738 -44.041,19.541 -68.023,17.418 -3.453,-6.578 -7.417,-12.922 -11.587,-19.052 84.828,-77.748 180.493,-164.81 200.97,-282.462 10.717,-3.453 21.054,-8.212 30.33,-14.556 10.161,-0.079 12.154,-11.534 14.58,-19.348 6.686,-21.534 13.861,-42.919 20.97,-64.318 33.186,-100.965 69.252,-200.945 105.16,-300.994 5.619,-16.688 11.907,-33.469 14.66,-50.813 14.599,-12.774 -18.066,-20.338 -26.389,-24.645 -66.005,-26.802 -137.463,-36.27 -208.461,-37.162 -131.698,-1.762 -265.045,-0.882 -394.93,22.567 -1.865,-7.377 -4.731,-6.258 -3.59,0.876 -0.68,0.295 -0.56,1.289 0.09,1.516 2.53,43.107 10.27,85.919 18.51,128.446 -54.973,-39.367 -107.923,-84.683 -172.86,-107.326 7.892,-1.609 10.315,-14.079 2.4,-16.918 2.902,-53.509 -56.25,-58.305 -90.681,-32.114 -10.533,8.878 -17.168,33.52 -0.169,38.718 -10.48,1.89 -19.89,5.551 -29.26,10.118 0.898,-16.458 -10.548,-31.22 -27.12,-19.615 -247.612,-117.794 -142.982,-214.407 -161.857,-426.501 -1.438,-60.245 -10.293,-64.831 -65.865,-91.131 -29.371,-18.049 -61.292,-31.014 -91.998,-46.608 0,0 -17.271,-34.53 -17.271,-34.53 4.056,14.07 1.431,30.468 11.261,42.52 -0.33,16.182 -4.059,24.058 -18.341,32.956 -46.714,33.915 -157.383,11.071 -151.549,-57.318 11.721,-7.648 16.002,-22.379 18.789,-35.332 0.331,-1.26 -1.659,-2.215 -2.229,-0.926 -6.216,18.703 -17.5,32.82 -38.641,34.239 -166.886,-23.34 -237.161,63.154 -241.537,207.226 -1.892,40.663 0.688,51.745 6.058,92.077 -11.61,43.983 -21.95,88.311 -32.66,132.521 -20.518,92.662 -48.65,133.437 -92.473,218.173 -25.877,52.956 -52.194,106.316 -64.756,164.125 -7.711,31.947 -43.752,99.431 -13.103,124.162 -4.057,39.739 10.943,79.993 37.742,109.641 -49.948,8.151 -103.597,87.627 -48.451,121.452 19.087,8.52 40.604,8.112 61.017,11.098 -1.941,6.474 7.098,11.221 12.854,10.873 -0.17,10.434 -0.762,21.303 3.544,31.214 0.798,5.561 2.694,10.783 8.848,11.124 7.18,0.284 14.273,-0.579 21.501,-0.345 11.502,17.88 32.388,33.253 54.168,21.617 13.043,-6.144 12.694,-22.246 23.129,-30.657 23.682,-15.345 56.376,-14.213 83.78,-13.434 11.424,39.39 17.049,80.267 26.207,120.23 -12.728,15.851 -26.376,30.843 -40.55,45.345 -0.498,-0.116 -1.017,-0.107 -1.53,0.052 -12.051,-11.248 -26.393,-29.201 -45.237,-23.815 -141.291,-123.584 -342.317,-117.81 -519.98,-115.17 -103.435,1.408 -206.924,1.811 -310.28,6.033 -19.285,1.969 -54.539,-3.268 -58.3,21.83 -9.45,0.84 -18.756,2.069 -28.12,4.045 -8.516,3.15 -30.435,-1.321 -30.88,10.46 1.886,26.862 2.906,54.966 12.438,80.42 12.125,28.147 42.198,27.718 67.362,18.284 5.73,-1.661 8.56,-7.193 7.38,-12.793 -3.14,-14.94 -7.02,-29.565 -9.15,-44.721 -1.24,-8.77 -2.09,-17.598 -2.63,-26.436 8.85,0.65 17.73,0.955 26.63,1.083 -86.459,7.601 113.037,7.299 124.93,6.073 -6.34,9.32 -4.24,22.813 2.35,31.799 22.941,27.238 67.557,16.34 99.53,19.812 -491.011,101.22 -663.113,735.753 -316.04,1081.437 357.71,371.307 980.842,156.059 1061.23,-339.508 22.954,3.833 46.081,6.907 68.891,11.472 -15.051,11.632 -34.88,18.02 -48.541,30.947 -15.318,14.654 -42.97,43.685 -25.71,64.782 -6.228,5.788 -17.669,19.496 -7.097,25.937 0.553,0.203 1.124,-0.196 1.408,-0.636 82.828,22.514 171.183,27.105 256.629,21.111 77.614,-0.016 129.35,-49.359 139.327,-124.041 8.389,-33.222 -0.782,-76.93 29.913,-100.099 13.6,0.483 27.2,0.965 40.8,1.447 12.41,0.443 27.25,3.081 39.21,-1.299 24.305,-10.398 19.923,-45.147 8.42,-63.716 16.715,-0.799 33.572,-0.758 50.17,-3.061 54.91,-7.889 41.579,-60.928 -1.93,-75.458 -9.108,-11.68 -55.325,-28.522 -58.896,-42.312 0.113,-2.474 3.385,-4.85 5.078,-6.571 l 6.155,-6.258 c 180.529,-182.222 363.247,-362.357 545.973,-542.448 6.745,25.955 4.033,52.838 6.38,79.267 3.68,37.784 13.143,75.188 22.49,111.951 -425.347,282.297 -370.922,963.591 102.2,1166.557 549.277,235.747 1064.178,-348.764 843.54,-869.519 -88.087,-221.155 -304.303,-388.301 -546.04,-404 z m 508.01,905.04 c -153.008,395.983 -684.228,514.11 -980.312,198.186 -263.985,-262.153 -224.816,-742.659 83.962,-954.77 2.63,9.064 5.36,18.108 8.19,27.124 -364.631,258.684 -307.21,859.158 108.59,1035.443 493.108,211.499 954.495,-313.586 756.512,-780.751 -113.799,-298.347 -484.927,-456.323 -776.722,-307.878 -2.649,-8.772 -5.191,-17.569 -7.74,-26.376 518.118,-242.832 1017.937,312.441 807.52,809.022 m -492.1,-235.92 c 8.36,6.968 16.76,13.878 25.2,20.747 -9.98,-0.945 -19.96,-1.889 -29.95,-2.795 2.584,-5.712 4.138,-11.772 4.75,-17.952 z m -20.3,11.2 c 0.42,-0.659 0.82,-1.328 1.2,-2.008 -0.34,0.798 -0.7,1.575 -1.09,2.353 -0.04,-0.118 -0.07,-0.227 -0.11,-0.345 m -3.52,5.079 c 0.79,-1.004 1.53,-2.038 2.23,-3.081 0.05,0.197 0.1,0.384 0.15,0.581 -0.53,0.886 -1.12,1.742 -1.76,2.559 -0.21,-0.02 -0.42,-0.04 -0.62,-0.059 m -30.44,-12.539 c -0.09,0 -0.15,-0.295 -0.1,-1.2 0.23,0.078 0.35,0.108 0.33,0.108 0.21,0.039 -0.07,1.092 -0.23,1.092 m 0.28,-18.571 c -2.57,-10.846 -13.67,-18.247 -16.9,-27.026 -0.168,-0.356 0.407,-1.366 0.58,-1.565 17.101,-5.996 40.361,7.508 38.99,26.603 -10.685,-4.599 -15.597,7.981 -22.46,13.394 0.4,-3.838 0.71,-7.48 -0.21,-11.406 m -23.5,30.637 c -0.27,0.729 -0.4,1.516 -0.4,2.283 -3.462,1.061 -8.211,2.454 -9.69,5.601 -1.343,-0.365 -2.718,-0.735 -4.04,-1.152 5.24,-1.073 10.11,-3.258 14.13,-6.732 m -19.66,-62.397 c -0.056,-4.063 6.662,-4.64 9.77,-6.22 -1.597,2.768 -2.792,6.546 -2.85,9.842 -2.38,-1.014 -4.84,-1.831 -7.33,-2.402 0.573,-0.059 1.573,-1.402 0.41,-1.22 m -13.81,30.756 c -3.254,-5.291 -7.08,-10.187 -9.81,-15.905 0.29,-0.276 0.59,-0.551 0.89,-0.807 45.774,-5.879 50.469,39.755 22.59,43.373 -0.469,-7.423 -1.315,-7.325 -0.74,0.05 -10.681,0.182 -22.286,-3.49 -27.69,-12.814 0.553,-0.225 0.159,-0.965 -0.32,-0.571 -0.62,-1.152 -1.14,-2.392 -1.55,-3.691 7.079,9.948 22.755,0.817 16.63,-9.635 m -358,-385.438 c 24.075,-26.549 50.953,-51.093 79.28,-72.367 52.908,157.413 130.87,307.751 236.67,437.226 -3.935,-2.026 -7.818,-4.13 -11.69,-6.26 -9.06,-12.155 -19.41,-23.503 -29.18,-35.106 -91.371,-108.037 -181.585,-217.388 -275.08,-323.493 m -131.47,545.309 c -15.906,-60.343 -22.057,-124.594 -18.22,-187.655 148.329,24.692 300.906,10.746 448.27,41.897 -143.339,48.505 -287.841,94.154 -430.05,145.758 m 44.87,-12.932 c 118.738,-37.861 236.947,-77.327 355.27,-116.41 13.72,-4.547 27.75,-8.533 41.08,-14.113 4.28,0.837 8.57,1.604 12.88,2.254 4.4,0.659 6.25,-5.216 1.87,-6.673 -154.828,-38.581 -316.81,-20.631 -474.14,-40.578 7.677,-130.954 60.668,-259.216 149.26,-356.443 93.614,117.391 190.918,232.247 286.47,348.235 -123.577,-67.389 -252.35,-125.634 -385.51,-172.184 142.913,56.61 290.157,125.644 426.71,202.192 0.979,1.194 1.965,2.41 2.95,3.651 -2.12,7.411 -1.22,14.645 1.79,20.953 -124.401,78.92 -255.341,151.677 -377.772,233.743 -1.388,1.744 -0.148,4.303 2.232,3.781 125.134,-72.109 246.664,-152.23 368.96,-229.463 -19.39,24.034 -37.65,49.002 -55.12,74.493 -23.41,18.326 -46.83,36.671 -70.25,55.006 -77.372,60.728 -154.68,121.566 -231.48,183 96.44,-70.516 194.352,-148.213 290.76,-221.767 -71.186,106.482 -131.634,219.824 -179.33,338.345 -2.17,5.314 6.49,7.519 8.67,2.352 52.386,-123.679 116.309,-242.548 190.1,-355.135 23.038,-20.738 53.632,-36.974 73.652,-59.63 -0.452,-2.049 -2.862,-3.86 -4.902,-2.364 -19.42,14.212 -38.23,29.319 -57.09,44.308 14.21,-21.366 28.74,-42.517 43.12,-63.785 4.508,7.465 12.194,13.386 21,16.111 -2.44,10.573 8.181,17.123 17.77,20.097 9.515,173.286 19.6,346.778 34.098,519.681 0.852,4.104 6.842,2.864 7.092,-0.945 -10.292,-172.755 -23.625,-345.609 -38.93,-518.057 25.185,5.605 56.17,7.935 77.97,-7.952 44.467,166.645 76.864,336.007 101.427,506.503 0.473,2.598 4.873,2.017 4.693,-0.62 -17.551,-172.006 -53.226,-342.704 -103.51,-508.304 3.05,-3.11 5.59,-6.702 7.63,-10.56 12.58,1.939 25.21,3.671 37.86,5.226 114.122,90.483 231.162,178.678 353.538,257.889 2.312,1.149 5.002,-1.813 2.902,-3.703 -116.837,-84.047 -235.662,-165.814 -349.96,-253.399 150.78,16.663 302.888,20.742 454.33,12.981 -59.742,636.721 -915.79,726.131 -1092.79,104.836 15.1,-3.494 29.96,-8.828 44.7,-13.552 m 552.83,-199.288 c 131.323,-90.951 255.528,-193.14 375.09,-298.76 36.207,46.601 65.292,99.378 85.85,155.314 -155.996,41.087 -309.833,90.682 -459.88,149.419 -3.81,1.723 -1.12,7.933 2.85,6.664 150.425,-57.179 303.005,-109.087 457.28,-155.394 28.433,77.27 40.147,161.448 34.51,244.492 -135.685,6.256 -271.837,4.355 -407.2,-7.234 -18.37,-1.544 -36.71,-3.296 -55.06,-5.039 -10.19,-7.578 -20.39,-15.127 -30.6,-22.655 1.585,-20.622 -7.457,-42.344 -24.39,-54.948 1.435,-5.472 1.157,-11.503 1.77,-17.144 3.38,-6.742 6.5,-13.621 9.81,-20.196 68.174,-137.68 147.824,-269.292 227.601,-400.662 -90.755,118.823 -166.435,255.715 -235.041,390.102 11.598,-157.493 32.492,-314.043 53.22,-470.56 133.845,23.56 255.825,99.881 338.57,206.915 -117.116,95.722 -235.47,190.059 -357.72,279.392 -3.106,2.708 -30.459,20.323 -16.66,20.294 m -209.18,-433.397 c -7.593,-18.006 -15.656,-35.649 -24.52,-53.107 20.21,-6.87 40.74,-12.499 61.55,-16.898 18.143,152.664 43.274,304.862 74.547,455.394 0.753,2.479 5.073,2.154 4.793,-0.64 -28.416,-151.249 -54.351,-303.003 -76.99,-455.247 39.429,-8.182 80.208,-11.872 121.01,-11.052 -17.264,165.925 -25.59,333.295 -23.004,500.066 0.164,2.844 4.354,2.854 4.504,0 1.743,-166.823 7.605,-333.575 19.86,-500.027 12.56,0.276 25.05,0.994 37.47,2.126 -3.524,9.776 -13.516,36.281 5.359,35.166 1.741,-0.286 2.671,-2.097 2.811,-3.633 0.746,-10.111 3.382,-20.331 5.64,-30.086 9.81,1.151 19.56,2.569 29.26,4.252 -30.353,153.253 -45.963,309.1 -59.162,464.556 -1.213,19.527 -0.65,28.55 -10.398,46.385 -12.54,-4.639 -27.134,-4.826 -39.77,-0.177 -89.832,-146.363 -174.587,-297.577 -222.88,-463.1 18.698,-9.212 38.15,-17.433 57.76,-24.418 4.795,18.833 10.681,37.238 17.44,55.459 2.75,7.5 6.05,15.363 11.62,21.288 16.163,7.624 6.257,-20.033 3.1,-26.307 m -204.36,-150.207 c -5.061,-26.606 -3.735,-53.693 -6.47,-80.477 14.223,-1.641 28.493,-4.65 42.91,-4.871 6.787,-0.258 13.834,0.64 20.45,-1.024 16.4,11.489 21.906,31.29 31.11,47.999 7.764,13.963 12.807,29.251 17.1,44.544 1.92,6.83 5.57,16.032 14.82,13.296 5.54,-1.634 9.79,-9.143 4.59,-13.562 -3.895,-2.887 -4.63,-8.722 -7.25,-12.804 27.346,-7.529 54.263,-16.377 81.1,-25.476 74.121,-19.912 151.906,-26.61 228.42,-19.738 -11.037,11.866 -28.522,14.354 -42.29,22.437 -3.291,0.872 -6.132,1.203 -9.45,2.808 -3.641,3.496 -8.088,5.668 -12.806,7.883 -94.54,-1.326 -187.132,18.419 -272.544,58.195 -9.98,-36.159 -19.28,-72.515 -27.29,-109.097 -0.31,-1.447 -2.57,-1.092 -2.57,0.345 9.001,195.168 144.218,508.376 267.53,661.728 -3.375,2.857 -14.312,8.428 -10.9,13.749 -8.11,-1.828 -29.698,-2.711 -26.8,10.117 -0.04,0 -0.07,0 -0.1,0.01 -145.158,-178.361 -248.103,-390.786 -289.56,-616.062 m -12.48,-112.67 c -8.688,-31.227 -20.213,-61.652 -25.099,-93.813 -8.832,-50.387 -23.699,-99.384 -38.675,-148.175 0.864,-0.2 1.58,-0.794 1.775,-1.917 1.317,-7.558 7.516,-11.004 14.91,-12.494 12.77,-3.355 20.533,1.092 31.385,6.829 -0.06,0.531 -0.087,1.061 -0.048,1.583 21.277,85.093 50.642,170.171 73.592,255.536 -18.532,1.565 -37.35,6.231 -52.89,16.574 -1.21,-8.071 -2.84,-16.111 -4.95,-24.123 m -237.55,214.563 c -106.306,106.087 -210.55,214.197 -317.895,319.135 -7.452,9.609 -25.285,20.596 -27.031,32.025 -5.687,-3.438 -11.371,-6.876 -17.057,-10.314 3.516,-2.052 1.124,-6.411 -2.321,-7.27 11.997,-0.494 -10.965,-3.246 -13.716,-3.204 0.44,-0.403 0.85,-0.856 1.23,-1.348 172.177,-215.172 394.188,-388.516 581.08,-591.271 4.749,15.398 9.725,30.668 14.27,46.109 -73.34,71.551 -146.23,143.584 -218.56,216.138 m -284.27,399.246 c 0.437,2.753 3.257,4.08 5.401,5.655 -9.068,3.41 -18.52,3.561 -28.171,3.084 -20.512,-0.804 -41.014,-1.709 -61.52,-2.716 -110.075,-4.544 -219.746,-16.045 -329.61,-23 -0.712,-25.551 -0.955,-51.516 6.73,-76.314 0.54,0.167 1.09,0.295 1.64,0.374 5.761,22.337 38.024,47.606 62.749,44.269 29.123,-5.752 46.259,-33.723 70.592,-48.5 12.353,-8.613 25.853,-16.226 40.789,-19.351 3.87,1.166 8.04,1.336 11.47,-1.062 25.201,-2.275 48.375,13.591 69.11,26.09 -12.697,2.807 -37.217,7.818 -42.781,20.312 -2.079,8.603 7.941,10.277 14.141,9.972 3.98,-0.197 4.99,-5.856 0.96,-6.978 -0.479,-0.126 -1.355,-0.532 -2.249,-0.912 0.2,-0.328 0.443,-0.653 0.724,-0.975 4.456,0.968 9.669,-2.579 13.784,-4.069 9.659,-3.519 19.529,-6.517 29.576,-8.754 8.228,4.991 16.454,9.984 24.685,14.976 -10.6,2.41 -30.161,9.051 -30.581,21.828 0.195,5.461 6.598,6.492 9.331,3.524 1.35,-0.659 1.87,-2.204 1.64,-3.612 8.338,-12.227 25.563,-7.507 38.457,-10.304 31.038,18.834 62.08,37.651 93.133,56.463 m -414.543,-12.219 c 0.138,-0.741 0.264,-1.482 0.363,-2.219 2.481,0.833 5.262,1.304 8.078,1.649 -2.841,-0.02 -5.681,0.074 -8.441,0.57 m 427.049,22.633 c 31.363,18.564 28.446,46.04 -10.007,47.475 -46.306,3.908 -93.312,3.419 -139.699,1.635 -89.783,-3.695 -178.919,-16.993 -266.12,-38.492 -13.471,-1.731 -16.353,-11.505 -16.26693,-23.456 3.47293,-5.215 11.85793,-4.437 18.22093,-4.405 115.705,2.412 230.893,19.916 346.836,22.552 9.667,-0.931 47.216,6.002 49.867,-2.229 5.256,-0.483 12.192,-0.081 17.169,-3.08 m -76.296,91.685 c -0.04,3.1 -0.03,6.191 -0.02,9.291 -13.64,0.581 -27.26,0.709 -40.87,0.413 0.978,-3.332 0.314,-7.075 -1.62,-10.117 0.534,-3.697 -0.965,-7.512 -3.63,-9.96 0.1,-1.88 -0.31,-3.809 -1.13,-5.571 15.979,1.18 31.93,2.78 47.87,4.41 0.06,3.828 -0.55,8.395 -0.6,11.534 m -98.24,44.456 c -67.605,57.685 -159.551,124.573 -252.161,82.67 -15.089,-6.809 -29.729,-14.23 -45.889,-18.383 -230.045,-39.266 -461.658,-73.082 -694.28,-93.852 14.032,-12.99 11.855,-32.713 14.78,-49.81 0.02,-0.01 0.04,-0.019 0.06,-0.039 -0.902,6.295 4.08,10.704 9.99,11.279 166.397,16.948 331.665,45.555 497.13,70.153 -0.02,0.275 -0.05,0.56 -0.08,0.836 40.113,4.325 79.811,12.508 119.71,18.591 25.47,4.223 50.89,9.016 76.44,12.677 1.821,0.263 3.286,-0.514 4.203,-1.667 4.857,0.215 9.629,-0.149 14.328,-1.307 15.298,53.535 81.964,65.298 74.375,-4.082 21.361,-7.706 42.613,-15.726 63.734,-24.054 7.84,-3.738 33.341,-7.664 21.5,-20.137 34.274,7.517 68.296,3.941 102.83,6.575 -2.62,3.257 -4.82,6.8 -6.67,10.55 m -12.72,64.287 c -6.343,67.781 -33.259,128.259 -110.813,131.996 -89.204,8.457 -179.112,1.851 -268.237,-4.642 0.301,-0.817 0.096,-1.453 -0.754,-0.677 0.155,-7.635 6.219,-13.667 11.915,-18.407 10.699,5.018 23.406,4.053 34.349,0.591 17.221,2.361 37.249,5.439 50,-8.404 6.317,-6.671 1.814,-14.001 -3.88,-19.301 15.898,-11.492 31.786,-23.033 47.64,-34.584 4.64,-3.366 11.5,-5.659 14.13,-10.846 86.179,26.947 169.055,-27.279 231.69,-80.575 -3.42,14.841 -4.25,30.815 -6.04,44.849 m -369.36,87.859 c 3.716,-18.529 17.316,-34.309 30.817,-47.1 17.368,-7.113 32.381,-18.165 48.237,-27.872 11.382,-3.879 38.837,13.818 51.466,17.889 -29.156,24.253 -61.533,44.432 -95.748,61.09 -4.216,2.098 -8.599,4.239 -13.178,5.589 -2.094,-1.106 -5.612,-0.451 -6.89,1.31 -7.545,0.678 -15.797,-1.669 -14.704,-10.906 m -77.88,28.856 c -149.609,382.429 -665.579,494.226 -952.692,190.775 -319.909,-318.536 -169.553,-904.405 280.332,-1009.157 0.96,6.073 2.53,11.998 4.55,17.814 -424.924,103.161 -560.419,668.359 -262.121,969.909 319.109,335.416 859.598,138.541 933.121,-301.242 11.21,1.732 22.41,3.475 33.61,5.236 -7.61,43.383 -19.89,85.733 -36.8,126.665 m -539.15,-833.961 c 141.542,-0.511 279.648,53.431 384.117,147.343 -1.22,2.001 -3.458,3.897 -3.829,6.207 -3.968,3.937 -7.939,7.875 -11.898,11.813 -128.014,-122.713 -318.017,-175.805 -491.39,-133.357 -2.54,-5.62 -4.68,-11.387 -6.22,-17.371 42.1,-9.734 85.29,-14.635 129.22,-14.635 m -133.93,-40.431 c -26.605,-2.731 -75.135,7.46 -91.061,-17.664 -4.119,-6.566 -5.349,-14.824 -1.849,-21.615 162.743,-0.625 325.957,-10.511 488.55,-3.764 49.669,2.722 95.062,26.202 137.078,50.684 -0.593,0.438 -1.081,0.951 -1.46,1.517 -132.588,-2.698 -264.935,-2.81 -397.328,-10.065 -44.809,1.695 -89.147,2.516 -133.93,0.907 m -164,-58.372 c -27.927,0.709 -55.888,2.289 -83.64,5.276 -0.113,-9.166 1.09,-23.316 -11.78,-23.05 5.014,-17.031 56.299,-8.903 71.939,-11.34 94.792,-1.858 189.616,-3.138 284.421,-3.856 180.388,-5.366 378.786,-4.377 524.24,112.463 0.55,0.305 1.22,0.345 1.86,-0.098 12.63,-7.593 28.475,14.97 36.996,22.338 -6.77,6.08 -14.273,11.262 -21.292,17.01 -3.071,-3.599 -6.408,-7.055 -8.825,-11.149 3.205,-2.975 3.911,-8.378 -1.159,-11.114 -26.84,-14.507 -54.52,-27.626 -81.81,-41.297 -19.827,-8.729 -36.893,-22.2 -56.82,-30.726 -11.88,-5.245 -24.15,-9.507 -36.67,-12.893 -21.19,-7.47 -42.88,-12.322 -65.63,-14.33 -183.792,-5.823 -368.005,-1.529 -551.83,2.766 m -103.02,81.314 c 3.028,-1.202 5.614,-3.788 6.82,-7.608 0.47,1.939 0.96,3.858 1.49,5.767 -2.72,0.797 -5.52,1.457 -8.31,1.841 m 887.334,30.449 c 1.706,7.731 8.844,13.055 12.539,19.838 -29.314,27.555 -59.247,54.492 -86.939,83.608 -74.45,-66.616 -164.663,-114.822 -261.714,-139.249 82.298,1.621 164.592,3.196 246.89,4.754 2.75,0.049 4.611,-1.264 5.608,-3.073 4.406,-1.147 9.688,-2.251 13.05,-4.27 23.33,11.882 46.636,23.892 70.359,34.94 -0.057,1.353 0.027,2.588 0.207,3.452 m -512.454,236.551 c 22.044,80.081 34.089,163.525 63.517,241.334 0.147,0.359 0.791,0.341 0.743,-0.1 -0.38,-4.143 -0.03,-8.267 -0.52,-12.42 -11.592,-67.585 -29.787,-133.957 -45.05,-200.804 19.394,30.825 70.092,158.111 100.87,160.895 -21.333,21.202 -42.666,42.408 -64.01,63.588 -20.314,19.747 -40.209,45.661 -69.9,51.04 -10.364,1.421 -21.329,3.916 -27.94,12.657 -4.97,-6.988 -3.27,-16.476 1.35,-23.906 21.477,-31.688 67.387,-18.228 94.73,-41.503 4.97,-4.862 -3.23,-12.539 -8.98,-7.903 -10.63,8.563 -24.54,10.855 -37.71,13.148 -43.879,-148.422 -86.535,-297.46 -133.9,-444.862 10.55,-3.327 21.2,-6.289 31.92,-8.897 22.539,40.858 41.87,82.654 62.449,124.402 10.055,24.754 28.566,47.11 32.431,73.331 m 212.91,511.551 c -6.546,-6.911 -28.985,3.814 -16.801,11.005 10.461,1.691 21.441,1.583 32.021,2.046 98.346,3.144 196.516,12.817 294.27,21.632 -127.351,364.823 -601.89,483.818 -872.542,194.074 -278.62,-282.025 -167.41,-808.26 221.652,-928.613 40.577,149.159 86.229,297.09 130.12,445.316 -11.44,2.155 -22.7,5.058 -32.91,10.836 -20.797,10.4 -36.87,40.817 -17.21,59.317 -16.013,46.714 44.429,84.736 79.81,48.274 172.196,26.391 345.241,46.957 517.33,74.06 -5.26,29.329 -12.77,58.146 -22.53,86.304 -9.304,-4.936 -20.729,-3.863 -30.95,-5.887 -10.83,-1.367 -21.67,-2.646 -32.53,-3.768 -82.867,-8.446 -166.063,-13.905 -249.4,-13.799 0.06,-0.265 -0.03,-0.58 -0.33,-0.797 m 374.511,-776.252 c 6.721,-6.307 14.19,-12.333 20.217,-19.305 4.48,21.517 8.977,43.034 13.512,64.552 -189.505,175.221 -383.763,345.718 -572.13,521.983 -1.256,-2.265 -4.602,-2.998 -7.11,-3.218 0.58,0 -2.26,0.443 -2.71,0.483 0.27,-0.05 0.54,-0.089 0.82,-0.138 -4.972,0.078 -9.641,3.925 -10.61,8.582 -2.59,6.706 1.539,15.124 8.57,17.115 -0.42,2.519 -0.67,5.068 -0.87,7.608 -3.319,-3.618 -8.486,-4.653 -12.58,-7.342 -6.369,-4.523 -14.385,-10.154 -22.301,-9.087 -16.078,-4.818 -28.261,9.865 -11.659,10.443 4.532,-0.705 8.829,-1.88 13.038,-1.601 7.689,10.255 15.739,32.579 31.922,23.983 -1.686,8.708 -7.621,21.077 -16.699,23.455 -0.936,0.385 0.27,0.804 0.769,0.766 -33.863,24.333 -77.012,-15.281 -56.299,-50.253 6.273,-10.198 19.097,-10.324 29.68,-12.616 6.029,-1.546 11.859,-4.017 17.269,-7.058 60.468,-45.88 108.959,-106.189 164.323,-157.949 137.976,-136.445 273.672,-275.164 412.848,-410.403 m -497.421,540.884 c 22.34,-20.294 44.69,-40.608 67.03,-60.922 35.792,15.173 72.531,28.575 108.84,42.645 -58.758,2.797 -118.227,5.759 -175.87,18.277 m 28.87,21.179 c -16.992,-10.45 -37.999,-6.057 -55.06,2.352 7.13,-7.076 15.11,-13.522 22.46,-20.146 58.554,-3.286 116.893,-11.023 175.61,-12.203 9.09,-0.306 18.19,-0.542 27.28,-0.699 15.21,5.688 30.45,11.318 45.71,16.859 73.784,26.529 147.994,51.992 222.79,75.576 -0.28,12.755 -0.97,25.421 -2.06,38.019 -140.182,-21.889 -280.522,-42.967 -421.41,-60.026 11.136,-12.02 -3.746,-33.434 -15.32,-39.732 m 491.97,77.653 c -0.39,10.245 -1.04,20.442 -1.93,30.589 -11.17,-1.802 -22.34,-3.583 -33.51,-5.345 1.03,-11.603 1.74,-23.266 2.11,-34.987 11.07,3.385 22.17,6.662 33.33,9.743 m -33.07,-21.879 c 2.192,-142.691 -47.718,-284.725 -140.82,-392.828 6.26,-5.719 12.53,-11.427 18.8,-17.145 103.309,113.772 158.988,266.336 155.45,419.668 -11.18,-3.1 -22.32,-6.348 -33.43,-9.695 m 26.36,-251.952 c -28.42,-68.814 -67.91,-131.3 -117.54,-186.09 45.481,-41.396 91.109,-82.619 136.84,-123.732 43.902,212.507 93.264,424.136 144.213,634.913 -6.587,2.218 -13.589,2.775 -20.496,2.235 -32.055,-6.184 -64.395,-11.242 -96.687,-16.303 9.932,-105.706 -5.86,-213.594 -46.33,-311.023 m 176.464,333.964 c -0.524,-1.477 -0.989,-3.04 -1.367,-4.581 0.443,1.531 0.899,3.059 1.367,4.581 m 143.657,-84.041 c 7.794,-20.655 30.777,-29.406 44.352,-8.645 18.228,38.644 -52.917,44.832 -44.352,8.645 m -13.581,-24.957 c -4.715,11.554 -5.101,24.6 -4.88,37.015 0.06,3.061 1.47,5.148 3.42,6.279 3.35,8.287 9.9,13.198 17.74,16.151 -9.098,-1.258 -16.041,6.85 -24.07,10.018 -20.008,10.364 -39.844,20.993 -59.532,31.931 -7.878,-40.821 -25.349,-79.946 -25.789,-122.074 -1.226,-11.381 18.974,-1.093 25.201,-1.249 20.47,4.174 41.06,7.855 61.72,11.044 -2.645,4.426 0.953,10.73 6.19,10.885 m -99.642,-28.806 c 0.494,0.114 0.991,0.219 1.485,0.332 -0.251,0.348 -0.481,0.708 -0.681,1.086 -0.261,-0.477 -0.522,-0.955 -0.804,-1.418 m -216.138,-722.011 c 17.13,2.037 34.27,4.035 51.42,5.865 17.16,167.855 53.277,333.701 101.201,495.805 2.859,9.792 5.779,19.575 8.689,29.368 4.166,9.361 3.66,29.056 17.18,28.896 -0.59,6.013 -0.99,12.056 -1.19,18.119 -4.71,9.763 -8.45,19.949 -10.64,30.332 -3.429,17.422 -4.469,35.294 -5.521,52.999 -2.641,43.947 4.518,50.729 47.758,58.979 11.385,45.342 16.814,92.959 26.375,139.049 1.607,8.536 3.897,16.863 1.503,25.22 -6.065,12.111 -18.671,10.879 -28.863,3.159 -9.9,-9.559 -12.662,-23.073 -16.582,-35.573 -40.139,-132.526 -67.029,-268.438 -94.23,-403.97 -28.13,-150.348 -68.336,-298.043 -97.1,-448.248 m 127.46,321.701 c 0.06,-0.108 -0.07,-0.265 -0.19,-0.187 59.73,-25.491 119.25,-54.511 178.53,-82.022 -37.738,102.043 -107.72,193.178 -124.99,302.205 -21.552,-72.856 -39.036,-146.789 -56.49,-220.675 0.62,1.388 2.28,2.343 3.14,0.679 m -9.85,-39.229 c 69.907,-37.428 140.993,-73.482 209.06,-114.206 -4.515,18.75 -9.235,37.425 -15.39,55.696 -36.828,17.593 -73.327,35.857 -109.97,53.864 -23.433,11.607 -46.982,23.06 -69.69,36.011 -2.1,1.257 -7.391,3.084 -7.54,6.162 -2.9,-12.451 -5.73,-24.92 -8.49,-37.4 0.67,0.118 1.36,0.089 2.02,-0.127 m -45.27,-241.973 c -2.668,-8.947 -2.697,-18.154 -4.738,-27.452 9.086,-0.454 18.172,-1.614 27.108,-3.373 9.63,0.168 19.58,-0.62 28.7,-3.346 61.095,45.001 124.582,85.984 190.851,123.228 6.229,3.959 12.679,6.439 19.949,7.344 -1.88,7.618 -3.69,15.246 -5.5,22.883 -70.003,36.455 -142.473,69.826 -211.081,108.22 24.261,-11.091 48.231,-22.872 72.161,-34.731 -24.671,14.54 -52.031,23.741 -76.66,38.167 -15.556,-76.543 -35.533,-153.065 -40.79,-230.94 m 282.38,516.482 c -31.515,9.933 -58.608,30.229 -83.882,50.694 -23.539,22.063 -56.195,6.963 -73.546,-15.169 1.569,-2.355 -3.415,-2.372 -4.317,-5.003 45.876,-59.976 92.567,-66.56 164.965,-66.5231 -4.642,11.3071 -5.444,24.0001 -3.22,36.0011 m -456.51,-560.318 c -13.456,5.577 -21.631,17.381 -26.539,30.403 -6.031,12.636 -21.251,6.042 -28.221,-1.999 -9.241,-13.603 -20.193,-22.141 -37.57,-16.839 -5.061,-8.768 -5.995,-19.028 -8.252,-28.601 34.436,7.999 69.186,13.066 104.462,15.343 -1.3,0.532 -2.6,1.093 -3.88,1.693 m -157.36,-337.783 c 2.66,-8.346 6.25,-16.416 10.78,-24.043 0.79,-1.329 -0.77,-2.923 -2.02,-2.471 23.403,-106.636 83.898,-188.477 119.943,-290.767 28.515,-88.899 49.482,-141.611 60.587,-234.199 22.43,111.423 33.069,196.543 137.598,265.23 69.36,44.843 150.471,70.906 231.712,85.377 -15.796,17.711 -18.337,42.085 -19.86,64.652 -2.924,39.85 -8.444,80.771 -1.41,120.386 -37.022,5.038 -74.51,2.302 -111.35,-2.953 -146.611,-27.789 -303.614,-7.842 -430.87,71.797 -2.11,-17.804 -0.54,-35.972 4.89,-53.009 m 214.05,-749.34 c 24.764,-97.402 92.561,-110.955 197.871,-103.484 10.089,-0.781 20.039,-2.839 28.469,-7.523 -26.627,222.391 108.549,301.303 143.35,514.819 -134.015,-57.564 -220.093,-125.199 -226.638,-267.327 -1.422,-22.409 -0.322,-44.789 -0.432,-67.199 -0.01,-0.866 -1.21,-0.974 -1.48,-0.197 -54.05,196.248 98.849,336.331 294.85,378.519 -9.73,22.857 -17.412,35.65 -27.14,58.51 -0.022,0.033 -0.038,0.066 -0.04,0.098 -0.022,0.033 -0.041,0.087 -0.05,0.109 -4.265,9.874 -8.685,20.013 -14.79,28.945 -0.78,1.141 -3.26,3.317 -0.71,1.082 -0.67,0.581 -1.28,1.417 -1.89,2.096 -10.653,0.782 -38.61,-15.598 -46.24,-9.458 -101.404,-20.498 -218.909,-41.651 -280.832,-129.564 -65.483,-127.947 -98.579,-259.373 -64.298,-399.426 m 243.25,-59.367 c 42.862,43.008 136.631,47.502 169.83,-8.483 -2.043,192.414 -11.47,266.175 -28.33,457.854 -38.792,-196.513 -144.437,-259.097 -151.56,-462.313 2.88,4.646 6.29,9.015 10.06,12.942 m 184.094,-21.449 c 21.516,9.173 41.491,21.432 60.136,35.328 19.939,15.027 48.996,15 54.41,41.914 5.821,60.738 3.536,83.034 2.272,144.027 -15.52,189.761 -19.213,249.524 175.268,347.182 0.5,2.411 1.28,4.803 2.23,7.125 -25.459,9.083 -55.207,5.339 -78.86,19.261 -10.433,-13.898 -22.784,-28.752 -40.63,-33.069 -7.37,-1.761 -14.56,-0.984 -21.93,0.286 -4.136,0.339 -8.652,2.551 -12.22,-0.217 -26.586,-15.324 -53.338,-20.528 -73.849,-43.072 -15.256,-13.771 -7.356,-45.549 -10.343,-65.031 -6.928,-128.268 2.347,-187.546 10.544,-315.511 0.338,-9.645 1.038,-19.3 -0.212,-28.896 -0.08,-0.62 -0.86,-0.748 -1.1,-0.147 -31.157,130.109 -27.759,197.898 -28.045,330.981 -0.473,38.115 5.094,64.969 10.957,102.494 0.538,4.961 8.248,5.207 8.058,0 -0.375,-10.106 0.17,-9.438 0.628,-19.591 7.869,5.672 12.028,2.735 17.521,10.39 8.697,10.839 19.546,19.842 30.361,28.56 -28.038,-4.755 -54.517,-17.621 -82.504,-23.826 1.602,-4.181 3.205,-8.363 4.954,-12.49 -0.06,0.167 -0.11,0.275 -0.13,0.344 0.873,-2.159 2.04,6.293 3.18,4.232 6.29,-4.34 6.16,-16.918 -3.04,-18.689 -16.559,-3.172 -32.875,-7.457 -48.82,-12.756 12.775,-206.832 34.931,-296.675 11.825,-503.638 3.126,1.68 6.276,3.263 9.339,4.809 m 305.696,586.078 c 8.292,-3.088 4.195,-10.657 1.44,-16.525 1.835,-1.201 3.45,-3.196 4.13,-5.383 0.715,18.742 6.509,37.185 17.44,52.605 -32.638,3.694 -65.422,6.53 -97.98,10.658 -0.43,-1.033 -0.87,-2.047 -1.33,-3.041 12.163,-6.071 -4.934,-17.714 -9.36,-23.738 28.317,-6.408 58.238,-4.506 85.66,-14.576 m 49.92,-15.452 c 89.393,-3.683 162.705,53.381 230.139,103.794 11.14,6.686 20.413,19.645 34.541,18.659 1.22,6.279 2.44,12.548 3.64,18.807 -29.733,-0.871 -61.936,-3.193 -86.47,-21.573 -51.878,-52.928 -120.91,-97.594 -199.05,-84.847 -6.313,-10.285 -10.701,-21.957 -11.85,-33.935 9.56,-1.063 19.51,-1.053 29.05,-0.905 m 18.29,-38.905 c 13.109,-5.615 39.735,-13.754 47.41,2.884 -0.06,0 0.79,2.204 0.78,2.175 1.398,4.162 1.549,8.402 1.01,13.365 -16.551,0.315 -33.184,-0.958 -49.52,-3.523 0.04,-3.819 -2.63,-7.726 -6.47,-9.026 1.67,-2.43 3.95,-4.241 6.79,-5.875 m 156.015,173.559 c 0.144,-0.127 0.275,-0.257 0.397,-0.389 7.123,5.039 14.817,9.072 22.961,12.255 -12.063,1.276 -24.427,2.858 -36.334,0.259 4.4,-4.046 8.657,-8.285 12.976,-12.125 m -457.385,-24.937 c -1.91,1.014 -3.8,1.919 -5.67,2.628 -0.4,-0.226 -0.79,-0.462 -1.17,-0.709 -5.871,-4.579 -13.633,-10.219 -13.15,-18.434 6.82,5.296 13.38,10.925 19.99,16.515 m 90.94,-106.834 c 27.255,0.541 38.212,29.743 54.77,46.543 -8.514,7.412 9.744,21.197 -1.191,30.027 -28.115,12.531 -58.376,20.859 -87.228,31.919 -7.611,2.705 -14.861,5.559 -22.581,3.385 0.163,-0.244 0.304,-0.502 0.456,-0.752 -2.208,-1.384 -6.893,-1.518 -6.954,-4.699 -4.3,-2.242 -8.935,-4.256 -12.291,-8.032 -0.341,0.14 -0.681,0.283 -1.021,0.432 -27.926,-23.009 -61.896,-52.639 -101.04,-46.405 14.201,-24.598 22.934,-51.922 32.823,-78.451 33.079,5.469 61.553,24.978 95.597,27.744 16.594,0.68 33.74,-6.5 50.345,-0.778 -0.551,-0.324 -1.113,-0.634 -1.685,-0.933 m -199.23,67.949 c 8.72,-0.384 14.72,-5.167 19.36,-11.397 21.303,6.024 42.152,14.156 60.11,27.223 -15.199,7.561 -9.145,24.563 -0.679,34.751 2.676,34.621 4.149,69.395 2.939,104.118 -29.399,-2.095 -58.57,-6.642 -87.34,-12.903 -9.031,-46.833 -3.1,-94.957 -0.83,-142.166 2.13,0.315 4.28,0.472 6.44,0.374 m -46.94,142.943 c -1.361,-27.674 0.859,-55.326 2.05,-82.957 0.913,-22.766 0.065,-46.723 10.09,-67.82 7.854,2.128 15.177,4.131 22.9,6.348 -16.291,38.952 -18.118,83.012 -16.072,124.686 -0.017,33.938 7.801,37.441 40.202,41.819 -3.512,22.067 11.144,41.753 26.41,56.384 -43.796,-10.533 -86.56,-26.462 -131.74,-30.412 8.501,-1.347 39.841,-1.855 41.57,-10.904 12.078,-6.626 3.902,-25.953 4.59,-37.144 m 719.14,-7.411 c -47.005,67.113 -55.206,107.271 -41.067,187.814 1.648,11.537 7.678,24.711 20.437,27.182 -118.836,64.979 -238.948,128.006 -355.6,196.769 15.813,-37.639 31.263,-75.418 46.34,-113.349 14.793,-32.139 27.43,-72.468 -7.803,-96.48 -77.798,-51.869 -168.13,-84.01 -258.707,-106.873 -3.296,-9.102 -12.996,-14.37 -19.609,-21.151 -13.911,-13.507 -30.76,-25.628 -39.371,-43.717 24.096,3.713 48.477,5.522 72.85,5.945 4.55,0.079 8.3,-3.829 8.35,-8.218 0.538,-33.202 0.554,-66.432 -1.95,-99.57 11.774,3.71 22.844,-3.935 32.89,-9.144 14.378,9.73 31.69,5.363 46.41,-1.172 22.25,-8.236 44.49,-16.474 66.73,-24.712 13.426,-3.998 29.613,-11.655 28.14,-27.921 27.535,-2.944 54.94,-6.775 82.47,-9.832 13.973,-0.101 35.324,-3.727 24.52,-22.007 71.114,4.598 133.436,36.706 180.92,88.174 -6.96,6.198 -13.832,12.512 -20.907,18.581 -7.993,6.575 -18.89,-0.321 -28.03,-1.071 -65.468,-14.206 -131.864,-25.584 -194.783,-48.964 -13.059,-5.783 -25.623,-12.627 -37.616,-20.36 -5.398,-3.482 -10.414,5.037 -5.047,8.498 33.59,23.293 73.473,32.764 111.754,45.479 28.169,8.871 140.782,43.018 160.3,24.044 22.138,8.021 46.316,1.033 69.072,-0.64 16.219,1.346 33.562,5.05 49.877,3.624 3.12,16.367 6.27,32.715 9.43,49.071 m -410.518,495.672 c -0.739,0.402 -1.488,0.788 -2.222,1.196 0.095,-0.218 0.189,-0.436 0.284,-0.653 0.636,-0.192 1.294,-0.363 1.938,-0.543 m 424.198,-253.896 c 2.177,10.793 3.505,21.633 6.39,32.301 -10.288,-2.929 -37.687,18.855 -48.9,23.697 -14.11,7.935 -28.26,15.788 -42.45,23.583 -68.019,37.499 -136.639,73.923 -206.346,108.302 -1.801,-5.987 -37.595,20.631 -45.053,22.171 -27.578,17.021 -58.13,28.872 -88.231,40.824 11.05,-20.911 16.5,-47.023 30.436,-65.341 45.229,-27.259 91.613,-52.61 137.714,-78.389 77.316,-43.322 157.312,-83.002 230.151,-133.503 8.637,-2.077 17.027,-1.01 25.509,0.874 -2.438,8.219 -0.894,17.306 0.78,25.481 m -542.693,771.842 c -1.126,0.136 -2.252,0.27 -3.377,0.41 0.934,-0.264 1.874,-0.516 2.82,-0.747 0.186,0.113 0.371,0.225 0.557,0.337 m -3.707,-16.123 c -0.47,0.629 -0.79,1.318 -0.97,2.046 -4.977,-3.01 -9.954,-6.016 -14.931,-9.024 2.083,-0.4 4.164,-0.815 6.243,-1.27 4.055,-0.889 3.259,-7.756 -1,-7.269 -10.743,2.186 -20.667,1.047 -29.192,-6.077 13.211,0.859 19.305,-15.143 25.44,-24.377 33.295,-62.198 64.311,-125.546 100.772,-186.1 31.321,-55.584 62.888,-111.036 93.948,-166.762 22.554,-36.235 40.065,-88.666 3.25,-121.931 126.805,-58.027 253.416,-119.524 371.72,-192.733 9.988,43.266 24.835,85.196 38.71,127.373 -203.102,189.637 -417.43,371.499 -593.99,586.124 m 553.96,-888.092 c 3.783,19.498 7.596,39.01 11.36,58.52 -4.675,10.43 -5.459,24.253 -15.249,31.563 -3.691,1.899 -8.431,-0.748 -12.191,-1.388 -8.369,-2.667 -18.408,4.387 -25.59,-0.776 -5.14,-5.297 -5.32,-15.67 -6.29,-22.441 -3.07,-21.426 -5.84,-43.167 -5.22,-64.848 -0.377,-36.534 18.336,-67.704 33.96,-99.59 6.38,32.99 12.81,65.97 19.22,98.96 m 18.18,88.37 c 0.274,0.498 0.576,0.985 0.894,1.466 -0.747,0.322 -1.484,0.674 -2.209,1.057 0.458,-0.831 0.9,-1.67 1.315,-2.523 m 44.18,22.09 c 0.158,1.007 0.326,2.012 0.513,3.013 -0.47,-1.186 -0.941,-2.373 -1.416,-3.558 0.28,0.196 0.581,0.377 0.903,0.545 m 39.54,9.424 c 88.731,26.925 186.761,45.982 279.13,28.945 -37.985,106.92 -118.313,190.582 -201.829,265.465 -8.979,-13.125 -15.931,-33.125 -32.574,-37.378 4.075,-4.353 3.128,-13.066 -2.637,-15.66 -23.558,-84.912 -52.936,-168.292 -74.886,-253.531 10.752,4.505 21.731,8.5 32.796,12.159 m 299.138,-416.573 c 1.216,-3.594 7.008,-2.044 5.789,1.571 -26.077,89.05 -50.683,179.069 -69.229,269.918 0.867,6.244 -9.039,6.899 -5.315,-5.421 19.577,-89.372 42.136,-178.467 68.755,-266.068 z m -2422.798,738.835 c -3.29,-0.826 -5.96,-2.519 -8.14,-4.744 1.5,0.079 3.03,-0.088 4.48,-0.512 1.792,2.823 4.582,5.043 7.5,5.906 -1.3,-0.118 -2.58,-0.325 -3.84,-0.65 m -19.66,-82.081 c -2.25,4.242 -2.45,10.619 -2.97,15.176 -0.22,1.959 -0.4,3.927 -0.53,5.896 -1.01,-6.123 -2.11,-12.234 -3.54,-18.267 2.35,-0.964 4.69,-1.9 7.04,-2.805 z m 829.93707,-227.4137 c 126.15987,18.983 178.52182,21.4945 216.12896,24.8604 -77.4368,5.7868 -253.59532,-15.5127 -252.4486,-25.7205 0,-3.7851 31.48327,0.1323 36.31964,0.8601 z"
       id="ðŸ–-Ink"
       fill="#000000" />
  </g>
  <g
     id="g844"
     transform="matrix(0.83138582,0,0,0.78808169,115.62525,55.8001)">
    <g
       id="g851"
       transform="translate(2.405622,10.151232)">
      <g
         id="head/mono/Long-Curly"
         stroke="none"
         stroke-width="1"
         fill="none"
         fill-rule="evenodd"
         transform="matrix(0.52276461,0,0,0.51882184,536.70397,21.790632)">
        <path
           d="m 343.4072,146.7179 c -65.77,-53.456 -171.167,-70.813 -241.57,-16.882 -54.704,50.613 -77.342,194.439 -67.661,266.711 2.692,46.355 38.107,98.896 90.094,84.235 8.828,-0.869 17.4,-4.253 26.309,-4.962 10.657,-1.227 21.395,-1.248 32.031,0.255 23.176,3.278 43.721,15.583 66.215,21.336 41.739,10.674 88.31,3.494 124.238,-20.55 118.727,-78.058 64.947,-254.593 -29.656,-330.143 z"
           id="ðŸŽ¨-Background-8"
           fill="#ffffff" />
        <path
           d="m 334.6483,498.6955 c 1.221,-0.421 2.44,-0.86 3.65,-1.31 0.08,0.28 0.21,0.549 0.361,0.81 0.17,0.42 0.34,0.829 0.529,1.239 -1.519,0.011 -3.04,-0.26 -4.54,-0.739 m -2.439,-518.021 c -0.54,-1.209 -1.161,-2.369 -1.861,-3.49 1.7,0.551 3.401,1.311 4.941,2.291 -1.04,0.35 -2.061,0.75 -3.08,1.199 m -259.79,158.161 c -0.07,-0.012 -0.139,-0.022 -0.208,-0.034 0.892,-2.375 2.481,-4.617 4.236,-6.236 0.315,-0.291 0.656,-0.56 0.986,-0.838 -1.863,2.219 -3.553,4.586 -5.014,7.108 m 475.349,248.349 c -0.88,-8.34 -2,-16.649 -3.45,-24.91 -1.39,-7.909 -2.56,-16.369 -6.59,-23.389 -4,-6.99 -8.01,-13.781 -12.769,-19.93 0.679,-3.14 1.58,-6.09 2.359,-8.47 4.5,-13.7 8.931,-31.1 -0.42,-43.83 -2.17,-2.95 -4.819,-5.21 -7.85,-7.25 -1.29,-0.87 -3.429,-1.66 -4.42,-2.86 -0.7,-0.85 -0.459,-0.39 -0.49,-0.81 -0.17,-2.26 5.13,-7.03 6.37,-8.82 2.321,-3.311 4.05,-7.04 5.37,-10.85 5.22,-15.08 1.67,-31.69 -1.469,-46.801 -1.66,-8.009 -3.49,-16.039 -4.091,-24.219 -0.56,-7.68 0.49,-15.18 1.11,-22.82 0.601,-7.541 0.441,-15.32 -2.79,-22.301 -1.58,-3.4 -3.969,-6.4 -6.88,-8.74 -2.839,-2.289 -6.38,-3.619 -9.149,-5.899 -2.761,-2.271 -1.971,-5.34 -1.25,-8.48 0.989,-4.26 2.239,-8.49 2.359,-12.89 0.22,-7.67 -2.91,-15.141 -7.799,-20.94 -5.041,-5.99 -12.241,-10.041 -20.021,-10.951 -3.56,-0.42 -7.06,0.291 -10.6,0.041 -3.5,-0.24 -4.259,-1.99 -4.92,-5.19 -1.519,-7.33 -0.9,-14.57 -4.509,-21.41 -3.2,-6.08 -8.891,-10.201 -15.181,-12.63 -11.529,-4.46 -24.939,-3.54 -37.1,-0.911 -7.179,-21.119 -29.589,-34.969 -51.639,-35.139 -3.441,-5.84 -9.271,-10.2 -15.92,-12.761 -11,-4.25 -22.651,-1.769 -34.11,-1.769 h -0.05 c -1.151,-0.071 -2.301,-0.1 -3.45,-0.09 -1.081,-0.061 -2.161,-0.151 -3.241,-0.27 -13.04,-1.541 -25.94,-6.881 -38.86,-1.65 -5.76,2.33 -10.34,5.92 -13.239,10.5 -4.37,1.189 -8.681,2.55 -12.91,4.13 -18.331,0.479 -36.491,10.309 -45.76,26.24 -13.05,-1.48 -27.21,1.03 -35.841,11.69 -2.248,2.774 -3.989,6.033 -5.143,9.493 -8.8,2.846 -16.943,7.917 -22.272,15.555 -4.863,6.97 -5.797,15.982 -2.508,23.464 -7.856,5.691 -13.995,13.838 -16.952,23.458 -1.797,5.845 -2.064,11.884 -0.908,17.637 -8.043,1.784 -15.736,5.091 -22.552,10.054 -7.143,5.199 -16.064,13.474 -16.534,22.998 -0.035,0.699 -0.008,1.398 0.048,2.095 -15.725,-1.105 -31.759,1.559 -42.388,14.166 -7.981,9.459 -11.45,21.64 -9.32,32.73 -18.71,3.8 -36.401,13.58 -48.741,28.04 -8.969,10.51 -16.939,23.87 -16.46,38.179 0.15,4.311 1.161,8.651 2.911,12.661 v 0.009 c -0.75,1.411 -1.521,2.981 -2.261,4.651 -11.59,8.109 -20.01,20.82 -24.75,34.83 -3.829,11.349 -6.239,26.09 -2.15,37.64 0.621,1.76 1.411,3.42 2.331,4.959 -0.771,0.821 -1.5,1.641 -2.21,2.471 -7.811,9.129 -15.721,20.629 -15.18,33.199 0.22,5.061 2.099,10.151 5.17,14.33 -10.801,10.951 -19.5,24.771 -18.641,40.201 0.74,13.43 8.111,27.07 19.66,33.52 -1.929,10.35 0.651,21.27 8.71,29.35 4.021,4.04 8.76,6.7 13.781,8.12 1.12,12.19 11.939,22 23.429,24.819 2.141,0.531 4.281,0.851 6.41,1 10.34,5.071 22.67,4.49 33.22,-0.16 3.11,3.951 7.16,7.171 11.88,9.481 1.91,0.94 3.931,1.72 6.04,2.349 14.9,4.41 30.181,-1.569 43.21,-8.549 0.42,-0.22 1.19,-0.5 1.87,-0.81 1.8,2.01 5.08,4 6.79,4.98 5.801,3.33 12.891,4.879 19.551,4.44 7.81,-0.52 14.699,-3.1 21.079,-6.77 0.931,0.16 1.87,0.25 2.811,0.3 6,0.319 11.349,-1.58 16.16,-4.58 3.179,0.42 6.439,0.38 9.739,-0.2 7.271,1.849 14.351,-1.09 20.04,-5.76 2.521,-2.07 4.65,-4.5 6.931,-6.82 2.369,-2.411 4.17,-2.97 6.939,-4.59 6.551,-3.83 7.34,-13.54 4.5,-20.561 0.54,-1.229 0.851,-2.599 0.851,-4.119 -0.021,-13.26 -6.13,-25.42 -13.63,-36.03 -3.351,-4.73 -6.99,-9.361 -10.981,-13.56 -3.21,-3.371 -7.719,-8.84 -12.469,-10.211 -0.29,-0.209 -0.591,-0.42 -0.891,-0.619 0.921,-3.221 1.46,-6.5 1.231,-9.85 -0.241,-3.441 -1.351,-6.701 -3.13,-9.48 5.969,-11.57 8.49,-24.26 7.29,-37.5 4.859,-6.891 8.54,-14.5 10.439,-22.84 1.17,-5.16 1.841,-10.59 1.75,-15.881 -0.04,-2.539 -0.97,-5.75 -0.989,-8.379 0.14,0.83 1.22,-2.27 1.64,-3.041 4.819,-8.949 11.009,-15.929 12.04,-26.479 0.599,-6.171 -0.861,-12.99 -4.561,-18.05 2.37,-9.34 2.34,-19.371 -1.39,-28.28 -1,-2.38 -2.149,-4.71 -3.469,-6.92 0.609,-1.86 1.17,-3.74 1.889,-5.431 0.281,-0.67 0.56,-1.349 0.84,-2.029 2.71,-2.391 5.231,-5 7.351,-7.561 4.699,-5.669 8.29,-12.169 8.74,-19.66 0.22,-3.75 -0.66,-7.34 -1.75,-10.899 -0.481,-1.61 -0.771,-3.4 -1.341,-4.97 -0.319,-0.871 -1.09,-1.76 -1.359,-2.58 -0.061,-0.18 -0.111,-0.33 -0.151,-0.45 0.04,-0.12 0.071,-0.37 0.071,-0.841 0.009,-3.59 0.479,-7.1 0.5,-10.559 3.29,3.32 7.25,5.799 11.75,7.25 9.069,2.91 18.53,1.59 26.559,-2.9 8.641,5.92 18.35,11.279 28.531,13.43 6.049,1.279 12.11,0.75 18.179,1.54 6.03,0.79 11.861,3.42 17.54,5.47 12.641,4.57 25.25,9.259 37.93,13.71 10.24,3.59 21.32,6.44 32.041,4.42 3.01,4.639 6.92,8.56 11.93,11.44 3.589,2.05 7.529,3.439 11.599,4.13 3.6,0.61 7.821,0.37 10.74,2.84 2.85,2.4 4.63,5.979 7.19,8.68 2.851,3.02 6.37,5.64 10.06,7.52 2.96,1.51 5.981,2.599 9.05,3.31 -0.269,6.83 -0.53,13.65 -0.61,20.49 -0.149,14.86 -0.09,29.719 -0.289,44.58 -0.2,14.809 -0.67,29.62 -1.45,44.41 -0.741,13.88 -1.781,27.809 -5.091,41.35 -10.98,44.93 -52.11,77.1 -98.15,78.74 -13.669,0.49 -27.2,-1.43 -40.27,-5.451 -13.539,-4.169 -25.63,-12.75 -39.51,-15.389 -3.63,-0.681 -7.05,2.97 -4.97,6.479 3.581,6.031 7.93,9.711 13.88,13.34 6.231,3.791 13.17,6.601 20.02,9.061 12.6,4.519 25.931,7.14 39.301,7.87 10.199,0.559 20.439,-0.14 30.429,-2.06 0.701,2.15 1.941,4.24 2.88,6.23 0.14,0.29 0.611,0.09 0.521,-0.21 -0.151,-0.5 -0.25,-0.94 -0.29,-1.3 3.359,4.38 8.549,7.409 13.88,8.88 3.759,1.04 7.75,1.359 11.62,0.92 1.25,-0.141 2.439,-0.35 3.62,-0.61 3.939,3.45 8.979,5.75 14.039,6.9 -0.869,5.28 1.74,11.04 7.791,12.54 2.539,0.63 4.979,0.64 7.42,0.41 1.97,0.92 4.09,1.64 6.34,2.13 2.929,0.64 6.429,-0.181 8.639,-2.3 1.21,0.85 2.34,1.44 3.46,2.789 4.611,5.561 14.55,1.131 14.99,-5.299 1.46,0 2.93,0.02 4.401,0.07 0.349,0.16 0.699,0.32 1.059,0.49 6.43,2.989 13.09,5.6 20.201,3.25 1.309,-0.431 2.509,-0.98 3.599,-1.62 5.01,0.45 9.95,0.46 15.031,-1.18 3,-0.971 5.819,-2.51 8.169,-4.53 7.84,2.3 16.111,3.34 23.911,0.489 5.839,-2.129 10.54,-5.489 13.849,-9.92 5.061,0.181 10.2,-1.039 14.83,-3.449 7.92,-4.1 13.47,-11.891 17.34,-19.7 8.521,-17.23 13.561,-35.74 15.54,-54.83 1.95,-18.8 -0.83,-37.5 -2.79,-56.191"
           id="ðŸ–-Ink-5"
           fill="#000000" />
      </g>
      <g
         id="face/Smile-Big"
         stroke="none"
         stroke-width="1"
         fill="none"
         fill-rule="evenodd"
         transform="matrix(0.52166504,-0.01026187,0.00970763,0.49348997,615.9781,123.8362)">
        <path
           d="m 93.346713,186.47649 c 17.142077,-2.08048 33.758287,3.16755 50.516187,5.81299 8.84794,1.39595 17.70686,2.43819 26.66057,2.82579 1.80112,0.0787 3.60324,0.12455 5.40536,0.16141 0.16763,-1.58626 1.05572,-3.043 2.97958,-3.91584 3.9435,-1.78754 7.0997,-2.59363 11.42938,-2.42125 3.96346,0.15643 7.94089,0.56396 11.84349,1.27838 7.08673,1.2993 14.2054,4.24765 19.38923,9.37013 11.99716,11.85315 10.17109,30.89234 0.90106,43.80267 -19.15214,26.67751 -54.10746,27.91565 -84.04529,27.56762 l -2.76272,-0.0361 c -27.25928,-0.38959 -66.259274,3.67472 -78.643597,-27.33918 -4.55419,-11.40477 -3.921553,-24.62399 1.654436,-35.56245 6.650674,-13.04684 20.650518,-19.84228 34.672314,-21.54413 z m 85.148587,44.41845 -0.24448,0.01 c -12.56792,0.48425 -25.13386,0.82502 -37.70877,1.04722 0.37619,3.22932 0.76036,6.45965 1.19942,9.682 0.34426,2.53583 0.71346,5.06868 1.09763,7.59853 0.16265,1.07113 0.75937,2.73412 0.59073,3.79529 l -0.0609,0.41948 v 0 c 0.64561,0.29194 1.23135,0.76224 1.66741,1.44478 0.15167,0.23614 0.26144,0.47428 0.3712,0.71143 9.76297,0.0767 20.26934,-0.1126 30.2219,-1.88718 l 0.02,-0.21622 v 0 c 0.18061,-1.27141 0.70947,-2.12731 1.41196,-2.71419 0.69949,-4.05435 0.63563,-8.37473 0.90604,-12.39719 0.16864,-2.49897 0.35125,-4.99594 0.52787,-7.49391 z m -47.55756,1.22856 c -9.05871,0.15411 -18.12136,0.27279 -27.17814,0.1622 l -4.111461,-0.0636 v 0 c 0.868131,4.65816 1.813091,9.30038 2.598401,13.98943 0.81924,4.88734 -3.482496,7.99411 -7.205477,7.86856 0.4181,0.0687 0.835201,0.1395 1.253301,0.19829 11.631946,1.64505 23.709926,1.20863 35.514496,1.19567 -0.63513,-3.7068 -0.37781,-7.8893 -0.47283,-10.98331 l -0.0181,-0.47925 c -0.18061,-3.96467 -0.30734,-7.92635 -0.38018,-11.88803 z m -61.531458,-0.85491 c 0.314323,2.42224 0.926005,4.79267 1.841034,6.9997 3.866671,9.32429 12.731576,13.67556 22.111371,15.50794 -1.627494,-0.56197 -2.919711,-1.91209 -3.246008,-4.22473 -0.813248,-5.75021 -1.105618,-11.59608 -1.127571,-17.43498 -6.536919,-0.0608 -13.117744,-0.20027 -19.578826,-0.84793 z m 143.178588,-1.99081 c -4.65398,1.09803 -10.06233,0.59485 -14.62849,0.8021 -4.27779,0.1943 -8.55757,0.36369 -12.83536,0.53706 0.20157,2.92045 0.39815,5.83989 0.61169,8.75834 0.2754,3.77237 0.30135,7.75896 1.02379,11.51538 8.60946,-2.93838 16.32384,-7.65035 22.11137,-15.18511 1.4419,-1.87722 2.73312,-4.08025 3.717,-6.42777 z M 91.379949,201.77519 c -7.747311,1.83437 -15.079517,5.70937 -19.020029,12.79874 -2.338962,4.2068 -3.367746,9.19277 -3.170172,14.10601 6.547896,-0.76224 13.208548,-1.0512 19.83727,-1.29033 0.02195,-1.19369 0.05011,-2.38604 0.08596,-3.57589 l 0.102124,-3.04961 c 0.180686,-5.81642 0.271475,-13.1204 2.164844,-18.98892 z m 40.099621,0.70944 -3.41047,-0.38306 c -9.47286,-1.07932 -18.94063,-2.21235 -28.413976,-1.56291 -1.371047,0.0947 -2.763048,0.24412 -4.158043,0.44838 1.674393,6.04216 1.533696,13.13851 2.23319,19.11989 0.270417,2.31264 0.611682,4.60635 0.989867,6.89109 l 1.643462,-0.0767 v 0 c 10.1651,-0.55101 20.34018,-0.88978 30.51327,-1.29332 -7.5e-4,-1.9101 0.01,-3.82132 0.0403,-5.73323 l 0.0376,-1.91214 c 0.11575,-4.88335 -0.19957,-10.38446 0.52487,-15.49798 z m 47.56953,-0.7752 c -9.92162,1.60121 -20.17554,1.94198 -29.92154,1.95394 -3.89262,0.005 -7.78324,-0.23416 -11.67186,-0.57891 0.25345,2.07052 0.38517,4.16495 0.57576,6.20657 0.38397,4.12588 0.82287,8.24539 1.29982,12.36108 l 0.42546,3.60122 v 0 c 12.50407,-0.56695 25.00714,-1.17974 37.50821,-1.81444 l 1.7642,-0.0947 v 0 l 0.49449,-6.92095 c 0.33661,-4.61502 0.70692,-9.22901 1.22979,-13.82307 l -0.39215,-0.14149 v 0 c -0.46101,-0.18931 -0.89807,-0.45037 -1.31218,-0.74929 z m 4.30872,1.71779 c 0.54682,6.52542 0.84917,13.07773 1.25131,19.6141 l 8.24121,-0.44026 c 1.37341,-0.0749 2.74679,-0.15126 4.12016,-0.23031 5.3405,-0.30789 12.20271,-1.92504 17.48234,-0.4165 0.40313,-4.79965 -0.96891,-9.47574 -5.30058,-12.70009 -7.60462,-5.66353 -17.28776,-3.64682 -25.79444,-5.82694 z M 155.2009,145.0937 c 12.272,-7.028 43.063,-14.211 45.013,7.874 0.89679,10.16296 -6.65879,18.58375 -15.48157,22.34128 l -0.33143,0.13872 c -8.275,3.402 -22.942,7.244 -30.103,-0.133 -5.96,-6.14 1.945,-17.149 9.351,-12.119 3.80602,2.58402 11.81719,0.68005 16.06411,-0.54949 l 0.26589,-0.0775 c 4.583,-1.347 10.693,-5.658 8.798,-11.301 -1.677,-4.992 -8.813,-5.904 -13.282,-6.066 -6.671,-0.239 -13.163,1.31 -19.773,1.814 -1.047,0.08 -1.37,-1.436 -0.521,-1.922 z m 50.835,-35.5127 c 16.656,-0.78 27.017,17.406 23.187,32.307 -0.662,2.571 -3.538,5.095 -6.314,4.806 l -0.69946,-0.0644 c -0.35534,-0.0341 -0.71234,-0.079 -1.04054,-0.16963 -2.636,-0.73 -4.999,-3.472 -4.807,-6.314 l 0.051,-0.82812 c 0.38861,-7.03913 -0.37424,-15.14917 -8.74001,-16.85388 -7.095,-1.446 -11.056,5.383 -11.14,11.669 -0.016,1.116 -1.27,1.895 -2.257,1.295 -5.129,-3.121 -6.017,-9.33 -4.058,-14.677 2.483,-6.775 8.697,-10.837 15.818,-11.17 z m -123.603,3.9004 c 12.121,-4.044 25.198,2.417 31.067,13.133 2.059,0.596 4.115,2.183 3.829,4.613 -0.413,3.496 -1.035,5.7 -3.459,8.351 -3.79141,4.1471 -10.8923,2.02669 -12.46816,-3.07843 l -0.0668,-0.23057 c -1.79,-6.599 -9.054,-10.953 -15.671,-8.643 -7.73,2.698 -7.506,10.862 -12.928,15.618 -0.637,0.559 -1.401,0.648 -2.165,0.279 -5.759,-2.783 -4.724,-11.159 -2.671,-15.953 2.693,-6.291 7.927,-11.886 14.533,-14.089 z M 65.9254,76.6741 c 9.822,-10.022 35.434,-19.72 42.153,-1.213 1.28,3.525 -1.445,8.278 -5.115,9.009 -6.01,1.196 -11.342,-1.413 -17.312,-0.945 -4.833,0.381 -9.874,1.996 -13.738,4.99 -10.702,8.292 -13.056,22.317 -20.513,32.871 -0.363,0.514 -1.068,0.298 -1.135,-0.308 -1.698,-15.365 4.902,-33.428 15.66,-44.404 z m 128.0952,-9.8659 c 6.518,-2.302 13.899,-2.105 20.451,-0.063 6.6,2.058 12.659,5.966 17.327,11.072 2.118,2.318 4.078,4.876 5.65,7.599 0.835,1.443 1.713,4.424 2.662,6.199 5.13449,2.964406 7.32909,9.7195 2.73222,14.52526 l -0.20722,0.21074 -0.615,0.61 c -2.471,2.446 -6.197,3.506 -9.57,2.529 -7.548,-2.184 -8.465,-8.129 -11.078,-14.439 -1.726,-4.168 -4.683,-7.856 -8.268,-10.565 -8.473,-6.4 -22.366,-8.439 -32.567,-5.423 -0.543,0.161 -1.181,-0.531 -0.794,-1.033 1.933,-2.504 3.047,-4.559 5.635,-6.579 2.627,-2.05 5.494,-3.531 8.642,-4.643 z"
           id="ðŸ–-Ink-9"
           fill="#000000" />
      </g>
    </g>
  </g>
</svg>
