<?xml version="1.0" encoding="UTF-8" standalone="no"?>
<svg
   xmlns:dc="http://purl.org/dc/elements/1.1/"
   xmlns:cc="http://creativecommons.org/ns#"
   xmlns:rdf="http://www.w3.org/1999/02/22-rdf-syntax-ns#"
   xmlns:svg="http://www.w3.org/2000/svg"
   xmlns="http://www.w3.org/2000/svg"
   xmlns:sodipodi="http://sodipodi.sourceforge.net/DTD/sodipodi-0.dtd"
   xmlns:inkscape="http://www.inkscape.org/namespaces/inkscape"
   width="49.560635"
   height="50.471424"
   viewBox="0 0 49.560635 50.471424"
   version="1.1"
   id="svg8"
   sodipodi:docname="zeroFace.svg"
   inkscape:version="1.0.2-2 (e86c870879, 2021-01-15)">
  <metadata
     id="metadata14">
    <rdf:RDF>
      <cc:Work
         rdf:about="">
        <dc:format>image/svg+xml</dc:format>
        <dc:type
           rdf:resource="http://purl.org/dc/dcmitype/StillImage" />
        <dc:title>face/Cute</dc:title>
      </cc:Work>
    </rdf:RDF>
  </metadata>
  <defs
     id="defs12" />
  <sodipodi:namedview
     pagecolor="#ffffff"
     bordercolor="#666666"
     borderopacity="1"
     objecttolerance="10"
     gridtolerance="10"
     guidetolerance="10"
     inkscape:pageopacity="0"
     inkscape:pageshadow="2"
     inkscape:window-width="1920"
     inkscape:window-height="1001"
     id="namedview10"
     showgrid="false"
     inkscape:zoom="2.7361172"
     inkscape:cx="133.26134"
     inkscape:cy="135.37787"
     inkscape:window-x="-9"
     inkscape:window-y="-9"
     inkscape:window-maximized="1"
     inkscape:current-layer="face/Cute" />
  <!-- Generator: Sketch 62 (91390) - https://sketch.com -->
  <title
     id="title2">face/Cute</title>
  <desc
     id="desc4">Created with Sketch.</desc>
  <g
     id="face/Cute"
     stroke="none"
     stroke-width="1"
     fill="none"
     fill-rule="evenodd"
     transform="matrix(0.27306222,0,0,0.28644879,-18.765653,-35.540088)">
    <path
       d="m 192.2565,270.40825 c 3.431,-6.054 13.669,-5.07 15.234,1.991 3.175,14.314 -13.894,27.532 -26.858,27.862 -12.883,0.327 -27.338,-10.638 -25.473,-24.488 0.461,-3.426 5.037,-3.01 6.597,-0.862 l 0.60565,0.82403 c 4.23707,5.69217 9.82784,11.58382 17.69135,10.19597 3.259,-0.574 6.219,-2.61 8.189,-5.231 2.376,-3.163 2.115,-6.94 4.014,-10.292 z m -81.9187,-104.7206 c 1.746,-0.481 3.508,-0.295 5.055,0.363 3.454,0.633 6.339,3.513 7.353,6.801 0.08,0.28467 0.16933,0.56578 0.2677,0.84393 l 0.1543,0.41507 -0.414,-1.054 c 0.191,1.038 1.036,2.129 1.34,3.171 0.374,1.281 0.465,2.736 0.339,4.146 1.098,0.011 2.196,0.048 3.292,0.143 l 1.0591,0.0949 c 5.92298,0.55046 12.42558,1.56017 15.9369,6.67809 1.972,2.876 0.121,8.054 -3.502,8.608 -5.577,0.853 -10.381,-2.233 -15.939,-2.851 -5.254,-0.585 -10.752,-0.25 -15.938,0.699 -10.706878,1.95744 -20.545611,6.29722 -30.97955,9.02032 l -1.420448,0.36069 v 0 l 0.002,-0.007 c -1.788,0.432 -3.818,-2.054 -2.049,-3.508 8.359,-6.867 19.061,-12.432 29.603998,-15.821 -1.536,-2.443 -2.011,-5.661 -0.961,-8.284 0.1626,-0.5436 0.36444,-1.07208 0.57723,-1.59905 l 0.44377,-1.08395 v 0 c 0.043,-0.511 0.141,-1.016 0.283,-1.511 l 0.023,-0.151 v 0 l 0.013,0.009 v 0 c 0.785,-2.551 2.835,-4.759 5.46,-5.483 z m 106.645,0.3948 c 2.28621,-2.28718 5.49868,-1.94919 7.88441,-0.14913 l 0.31659,0.24813 v 0 c 2.249,0.999 4.11,3.182 5.332,5.205 1.269,2.101 2.112,4.241 2.145,6.554 5.534,0.018 10.835,1.678 14.898,6.146 1.312,1.442 2.208,3.666 1.486,5.621 l -0.43,1.163 v 0 c -1.36434,3.69239 -7.49808,5.81792 -9.58282,1.47568 l -0.0962,-0.21168 c -2.215,-5.156 -10.718,-4.615 -15.237,-4.088 -3.15,0.369 -6.261,1.152 -9.303,2.029 -1.07175,0.309 -2.13394,0.64444 -3.195,0.98691 l -1.061,0.34409 c -0.566,0.183 -3.514,1.784 -1.68,1.405 0.493,-0.102 0.864,0.616 0.361,0.857 -2.186,1.045 -4.518,-1.036 -4.372,-3.384 0.25284,-4.07582 6.72523,-6.31055 9.8396,-7.71598 l 0.1864,-0.085 c 1.194,-0.552 2.445,-1.081 3.736,-1.572 -0.726,-1.08 -1.326,-2.28 -1.825,-3.568 -0.472,-1.216 -0.787,-2.398 -0.96,-3.691 -0.17,-0.632 -0.17,-1.264 0,-1.897 l 0.026,-0.181 v 0 c -0.088,-0.418 -0.13,-0.85 -0.124,-1.285 l -0.018,-0.169 h 0.018 c 0.061,-1.523 0.666,-3.049 1.655,-4.038 z m -36.5282,43.4048 c 8.783,2.714 23.273,10.107 18.696,21.518 -6.391,10.48 -23.34,2.778 -31.553,-0.608 -7.379,-2.444 -11.221,7.897 -4.086,11.014 58.959,23.325 58.742,-38.234 19.081,-37.33 -4.367,0.099 -4.504,4.504 -2.138,5.406 z m -78.0049,-80.26721 1.4982,-0.43719 c 7.785,-2.255 15.732,-6.149 22.644,-0.073 2.714,2.386 3.273,7.344 1.331,10.32 -4.424,6.781 -10.985,5.745 -18.13,6.323 -5.44,0.44 -10.798998,2.038 -15.876998,4.035 -4.15,1.633 -7.999,3.932 -11.633,6.496 -3.57,2.521 -6.009,6.462 -9.671,8.731 -1.342,0.832 -2.892,-0.024 -3.374,-1.373 -1.708,-4.785 1.178,-10.746 3.62,-14.823 2.981,-4.974 7.509,-9.042 12.378,-12.12 5.331692,-3.37108 11.227456,-5.31749 17.213798,-7.07881 z m 113.4377,-5.14869 c 13.159,-0.004 25.821,7.315 33.181,18.044 2.501,3.645 0.668,9.045 -2.922,11.144 -4.02745,2.35588 -8.33364,0.65948 -10.98775,-2.71645 l -0.15725,-0.20455 c -4.221,-5.621 -9.662,-10.048 -16.112,-12.93 -3.147,-1.407 -6.627,-2.548 -10.031,-3.127 l -1.1001,-0.18851 c -1.54186,-0.25837 -3.3305,-0.50509 -4.7249,-0.26349 -0.747,0.098 -1.433,0.345 -2.065,0.721 0.304,0.664 -0.481,1.464 -1.206,1.066 -3.27,-1.796 -2.869,-5 -0.168,-7.49 3.821,-3.523 11.358,-4.054 16.293,-4.055 z"
       id="ðŸ–-Ink"
       fill="#000000" />
  </g>
</svg>
